<?xml version="1.0" encoding="iso-8859-1"?>
<!-- Uploaded to: SVG Repo, www.svgrepo.com, Generator: SVG Repo Mixer Tools -->
<svg fill="#000000" height="800px" width="800px" version="1.1" id="Layer_1" xmlns="http://www.w3.org/2000/svg" xmlns:xlink="http://www.w3.org/1999/xlink" 
	 viewBox="0 0 512 512" xml:space="preserve">
<g>
	<g>
		<path d="M437.016,74.984C388.662,26.63,324.374,0,255.994,0S123.327,26.63,74.977,74.984C26.627,123.335,0,187.624,0,256.006
			c0,68.381,26.628,132.667,74.977,181.017C123.327,485.372,187.613,512,255.994,512s132.669-26.628,181.022-74.977
			C485.37,388.673,512,324.386,512,256.006S485.37,123.338,437.016,74.984z M255.994,494.315
			c-131.404,0-238.309-106.905-238.309-238.309c0-131.41,106.905-238.321,238.309-238.321c131.41,0,238.321,106.911,238.321,238.321
			C494.315,387.41,387.404,494.315,255.994,494.315z"/>
	</g>
</g>
<g>
	<g>
		<path d="M255.994,58.843c-108.71,0-197.152,88.445-197.152,197.161c0,108.71,88.442,197.152,197.152,197.152
			c108.716,0,197.161-88.441,197.161-197.152C453.155,147.29,364.71,58.843,255.994,58.843z M255.994,435.472
			c-98.959,0-179.467-80.508-179.467-179.467c0-98.963,80.508-179.477,179.467-179.477c98.963,0,179.476,80.513,179.476,179.476
			C435.471,354.963,354.957,435.472,255.994,435.472z"/>
	</g>
</g>
<g>
	<g>
		<path d="M255.994,117.697c-76.264,0-138.309,62.044-138.309,138.307c0,76.264,62.044,138.308,138.309,138.308
			c76.262,0,138.306-62.044,138.307-138.308C394.301,179.742,332.257,117.697,255.994,117.697z M255.994,376.628
			c-66.512,0-120.624-54.111-120.624-120.622s54.112-120.623,120.624-120.623s120.622,54.109,120.622,120.621
			C376.617,322.517,322.506,376.628,255.994,376.628z"/>
	</g>
</g>
<g>
	<g>
		<path d="M255.994,170.659c-47.054,0-85.335,38.286-85.335,85.347c0,47.054,38.282,85.335,85.335,85.335
			c47.061,0,85.347-38.282,85.347-85.335C341.341,208.945,303.055,170.659,255.994,170.659z M255.994,323.656
			c-37.303,0-67.65-30.347-67.65-67.65c0-37.309,30.347-67.662,67.65-67.662c37.308,0,67.662,30.353,67.662,67.662
			C323.656,293.309,293.303,323.656,255.994,323.656z"/>
	</g>
</g>
<g>
	<g>
		<path d="M255.994,211.854c-24.346,0-44.153,19.807-44.153,44.152c0,24.346,19.807,44.153,44.153,44.153
			c24.345,0,44.152-19.807,44.152-44.153C300.146,231.661,280.339,211.854,255.994,211.854z M255.994,282.473
			c-14.595,0-26.468-11.874-26.468-26.468c0-14.595,11.874-26.467,26.468-26.467c14.595,0,26.467,11.872,26.467,26.467
			C282.461,270.599,270.589,282.473,255.994,282.473z"/>
	</g>
</g>
</svg>